REM DIRINDEX 1\5,1\2\6,1\2\7,1\3\8,1\3\9,1\4\10,1\4\11,1\4\12
REM DIRNAME cjc026,folder01,folder02,folder03,folder04,folder05,folder06,folder07,folder08,folder09,folder10,folder11
TITLE ""
FILE "EJE_DB3000_5th_3B_11.mp3" MP3
  TRACK 01 AUDIO
    TITLE "0:"
    INDEX 01 00:00:00
  TRACK 02 AUDIO
    TITLE "10:cjc026_08682"
    INDEX 01 00:00:08
  TRACK 03 AUDIO
    TITLE "0:"
    INDEX 01 00:01:30
  TRACK 04 AUDIO
    TITLE "11:cjc026_08683"
    INDEX 01 00:01:68
  TRACK 05 AUDIO
    TITLE "0:"
    INDEX 01 00:03:36
  TRACK 06 AUDIO
    TITLE "12:cjc026_08684"
    INDEX 01 00:03:74
  TRACK 07 AUDIO
    TITLE "0:"
    INDEX 01 00:05:21
  TRACK 08 AUDIO
    TITLE "10:cjc026_08685"
    INDEX 01 00:05:62
  TRACK 09 AUDIO
    TITLE "0:"
    INDEX 01 00:07:09
  TRACK 10 AUDIO
    TITLE "11:cjc026_08686"
    INDEX 01 00:07:47
  TRACK 11 AUDIO
    TITLE "0:"
    INDEX 01 00:09:18
  TRACK 12 AUDIO
    TITLE "12:cjc026_08687"
    INDEX 01 00:09:54
  TRACK 13 AUDIO
    TITLE "0:"
    INDEX 01 00:11:03
  TRACK 14 AUDIO
    TITLE "10:cjc026_08688"
    INDEX 01 00:11:41
  TRACK 15 AUDIO
    TITLE "0:"
    INDEX 01 00:12:72
  TRACK 16 AUDIO
    TITLE "11:cjc026_08689"
    INDEX 01 00:13:37
  TRACK 17 AUDIO
    TITLE "0:"
    INDEX 01 00:15:22
  TRACK 18 AUDIO
    TITLE "12:cjc026_08690"
    INDEX 01 00:15:60
  TRACK 19 AUDIO
    TITLE "0:"
    INDEX 01 00:17:15
  TRACK 20 AUDIO
    TITLE "10:cjc026_08691"
    INDEX 01 00:17:56
  TRACK 21 AUDIO
    TITLE "0:"
    INDEX 01 00:18:64
  TRACK 22 AUDIO
    TITLE "11:cjc026_08692"
    INDEX 01 00:19:27
  TRACK 23 AUDIO
    TITLE "0:"
    INDEX 01 00:21:01
  TRACK 24 AUDIO
    TITLE "12:cjc026_08693"
    INDEX 01 00:21:39
  TRACK 25 AUDIO
    TITLE "0:"
    INDEX 01 00:22:48
  TRACK 26 AUDIO
    TITLE "10:cjc026_08694"
    INDEX 01 00:23:13
  TRACK 27 AUDIO
    TITLE "0:"
    INDEX 01 00:24:30
  TRACK 28 AUDIO
    TITLE "11:cjc026_08695"
    INDEX 01 00:24:71
  TRACK 29 AUDIO
    TITLE "0:"
    INDEX 01 00:26:21
  TRACK 30 AUDIO
    TITLE "12:cjc026_08696"
    INDEX 01 00:26:58
  TRACK 31 AUDIO
    TITLE "0:"
    INDEX 01 00:28:00
  TRACK 32 AUDIO
    TITLE "10:cjc026_08697"
    INDEX 01 00:28:38
  TRACK 33 AUDIO
    TITLE "0:"
    INDEX 01 00:29:66
  TRACK 34 AUDIO
    TITLE "11:cjc026_08698"
    INDEX 01 00:30:26
  TRACK 35 AUDIO
    TITLE "0:"
    INDEX 01 00:31:56
  TRACK 36 AUDIO
    TITLE "12:cjc026_08699"
    INDEX 01 00:32:19
  TRACK 37 AUDIO
    TITLE "0:"
    INDEX 01 00:33:44
  TRACK 38 AUDIO
    TITLE "10:cjc026_08700"
    INDEX 01 00:34:06
  TRACK 39 AUDIO
    TITLE "0:"
    INDEX 01 00:35:34
  TRACK 40 AUDIO
    TITLE "11:cjc026_08701"
    INDEX 01 00:35:72
  TRACK 41 AUDIO
    TITLE "0:"
    INDEX 01 00:37:22
  TRACK 42 AUDIO
    TITLE "12:cjc026_08702"
    INDEX 01 00:37:57
  TRACK 43 AUDIO
    TITLE "0:"
    INDEX 01 00:39:09
  TRACK 44 AUDIO
    TITLE "10:cjc026_08703"
    INDEX 01 00:39:50
  TRACK 45 AUDIO
    TITLE "0:"
    INDEX 01 00:40:61
  TRACK 46 AUDIO
    TITLE "11:cjc026_08704"
    INDEX 01 00:41:24
  TRACK 47 AUDIO
    TITLE "0:"
    INDEX 01 00:42:49
  TRACK 48 AUDIO
    TITLE "12:cjc026_08705"
    INDEX 01 00:43:15
  TRACK 49 AUDIO
    TITLE "0:"
    INDEX 01 00:44:26
  TRACK 50 AUDIO
    TITLE "10:cjc026_08706"
    INDEX 01 00:44:61
  TRACK 51 AUDIO
    TITLE "0:"
    INDEX 01 00:45:67
  TRACK 52 AUDIO
    TITLE "11:cjc026_08707"
    INDEX 01 00:46:33
  TRACK 53 AUDIO
    TITLE "0:"
    INDEX 01 00:47:71
  TRACK 54 AUDIO
    TITLE "12:cjc026_08708"
    INDEX 01 00:48:31
  TRACK 55 AUDIO
    TITLE "0:"
    INDEX 01 00:49:37
  TRACK 56 AUDIO
    TITLE "10:cjc026_08709"
    INDEX 01 00:50:03
  TRACK 57 AUDIO
    TITLE "0:"
    INDEX 01 00:51:30
  TRACK 58 AUDIO
    TITLE "11:cjc026_08710"
    INDEX 01 00:51:68
  TRACK 59 AUDIO
    TITLE "0:"
    INDEX 01 00:53:21
  TRACK 60 AUDIO
    TITLE "12:cjc026_08711"
    INDEX 01 00:53:56
  TRACK 61 AUDIO
    TITLE "0:"
    INDEX 01 00:55:11
  TRACK 62 AUDIO
    TITLE "10:cjc026_08712"
    INDEX 01 00:55:51
  TRACK 63 AUDIO
    TITLE "0:"
    INDEX 01 00:57:04
  TRACK 64 AUDIO
    TITLE "11:cjc026_08713"
    INDEX 01 00:57:39
  TRACK 65 AUDIO
    TITLE "0:"
    INDEX 01 00:58:45
  TRACK 66 AUDIO
    TITLE "12:cjc026_08714"
    INDEX 01 00:59:08
  TRACK 67 AUDIO
    TITLE "0:"
    INDEX 01 01:00:38
  TRACK 68 AUDIO
    TITLE "10:cjc026_08715"
    INDEX 01 01:01:01
  TRACK 69 AUDIO
    TITLE "0:"
    INDEX 01 01:02:31
  TRACK 70 AUDIO
    TITLE "11:cjc026_08716"
    INDEX 01 01:02:66
  TRACK 71 AUDIO
    TITLE "0:"
    INDEX 01 01:04:14
  TRACK 72 AUDIO
    TITLE "12:cjc026_08717"
    INDEX 01 01:04:49
  TRACK 73 AUDIO
    TITLE "0:"
    INDEX 01 01:06:07
